<?xml version="1.0" standalone="no"?>
<!DOCTYPE svg PUBLIC "-//W3C//DTD SVG 20010904//EN"
 "http://www.w3.org/TR/2001/REC-SVG-20010904/DTD/svg10.dtd">
<svg version="1.0" xmlns="http://www.w3.org/2000/svg"
 width="500.000000pt" height="500.000000pt" viewBox="0 0 500.000000 500.000000"
 preserveAspectRatio="xMidYMid meet">
<metadata>
Created by potrace 1.14, written by Peter Selinger 2001-2017
</metadata>
<g transform="translate(0.000000,500.000000) scale(0.100000,-0.100000)"
fill="#000000" stroke="none">
<path d="M0 4500 l0 -500 346 0 c323 0 345 -1 343 -17 -4 -49 -9 -48 156 -46
l155 2 0 -32 0 -33 123 1 122 0 3 -33 3 -33 72 1 c108 2 118 1 116 -12 -5 -44
0 -48 61 -48 l60 0 0 -30 c0 -23 5 -30 20 -31 11 0 54 -1 94 -1 l75 -1 3 -31
c3 -31 3 -31 60 -30 60 0 70 -7 63 -46 -3 -17 1 -21 18 -20 41 4 47 0 47 -30
l0 -30 63 0 64 0 -5 -30 c-4 -27 -2 -30 24 -31 92 -3 99 -5 100 -19 1 -8 2
-23 3 -34 1 -12 6 -16 16 -12 26 10 45 -5 45 -36 0 -29 1 -29 53 -28 76 2 75
3 72 -30 -2 -28 0 -30 32 -30 30 0 35 -3 30 -19 -8 -34 8 -45 67 -43 36 0 56
-4 57 -11 1 -7 2 -21 3 -32 1 -13 9 -20 24 -21 12 -1 26 -2 31 -3 4 0 8 -13 7
-28 -1 -25 3 -28 29 -28 27 -1 30 -4 30 -33 0 -29 2 -32 32 -32 30 0 33 -3 33
-30 0 -29 4 -32 48 -30 4 1 9 -14 12 -32 4 -26 10 -33 28 -34 12 -1 26 -2 32
-3 5 0 8 -13 7 -28 -2 -25 2 -28 31 -31 24 -2 33 -8 31 -20 -3 -35 2 -42 31
-42 27 0 30 -3 30 -29 0 -26 4 -30 32 -33 29 -3 32 -7 33 -33 0 -27 3 -30 30
-30 19 0 30 -5 31 -15 1 -8 2 -23 3 -32 1 -13 9 -18 30 -18 29 0 29 -1 29 -55
-1 -62 1 -67 37 -67 22 0 25 -5 25 -34 0 -30 2 -32 30 -29 28 4 30 2 30 -32 0
-32 2 -35 25 -31 33 7 42 -7 40 -69 -1 -51 -1 -52 29 -55 24 -2 31 -8 32 -26
2 -29 10 -37 37 -37 20 0 22 -6 25 -62 3 -62 3 -63 32 -63 32 0 31 2 34 -80 1
-39 4 -45 24 -46 12 -1 26 -2 31 -3 5 0 7 -22 6 -48 -3 -64 2 -73 37 -73 28 0
29 -2 28 -42 -3 -75 -1 -85 18 -85 40 0 42 -2 42 -63 l0 -60 30 0 c33 0 32 6
32 -117 l1 -72 28 3 c33 4 31 10 33 -109 l1 -80 30 0 30 0 1 -85 c4 -187 0
-170 34 -166 l30 3 1 -106 c1 -210 0 -205 33 -211 l28 -5 1 -277 0 -278 469 0
468 0 0 375 0 375 -30 0 c-35 0 -32 -14 -32 180 l0 136 -31 -4 -32 -4 0 119
c1 65 -3 123 -7 129 -5 6 -19 9 -33 6 l-25 -4 0 96 0 96 -30 0 -30 0 0 95 0
95 -30 -4 -30 -3 -1 61 c-2 134 -1 131 -31 129 -30 -2 -30 -2 -32 72 -1 47 -3
50 -31 55 -27 5 -30 9 -31 45 -1 22 -2 50 -3 61 -1 18 -7 21 -31 19 l-30 -3 0
64 0 64 -30 0 c-32 0 -31 -2 -32 78 0 23 -4 43 -9 43 -5 1 -19 2 -31 3 -21 1
-23 6 -23 63 l0 63 -32 0 c-31 0 -32 1 -31 48 0 81 1 80 -32 77 -28 -2 -30 0
-30 32 0 30 -3 35 -19 30 -33 -8 -44 8 -42 66 1 56 1 56 -31 59 -29 3 -32 7
-33 33 0 26 -4 30 -25 29 -28 -2 -40 11 -40 44 0 20 -5 23 -27 20 -28 -3 -28
-2 -33 62 -5 64 -5 65 -32 62 -23 -3 -28 0 -28 20 0 33 -12 46 -40 44 -21 -1
-25 3 -25 29 -1 26 -4 30 -33 33 -28 3 -32 7 -32 33 0 25 -4 29 -29 29 -26 0
-30 4 -33 33 -3 28 -6 32 -31 29 -24 -3 -27 0 -27 26 0 31 -19 46 -45 36 -17
-7 -17 -8 -19 66 -1 54 -2 55 -32 58 -26 3 -32 7 -31 28 0 31 -6 37 -38 37
-21 0 -25 4 -25 31 l0 32 -60 -1 c-62 -1 -61 -1 -64 45 -1 9 -13 16 -33 18
-29 3 -33 7 -33 33 0 26 -3 29 -30 29 -27 0 -30 3 -30 30 0 27 -3 30 -29 30
-26 0 -30 4 -33 32 -3 29 -7 32 -33 33 -27 0 -30 3 -30 30 0 29 -2 30 -45 31
-83 3 -80 2 -80 34 0 27 -3 30 -33 30 -30 0 -32 3 -32 32 0 29 -3 32 -30 33
-26 0 -30 4 -30 30 l-1 30 -62 -1 -62 -1 0 34 c0 30 -3 33 -30 33 -27 0 -30 3
-30 30 l0 30 -66 0 -66 0 4 31 3 32 -65 1 -64 1 -1 30 c0 30 0 30 -60 30 l-60
0 -3 32 c-3 31 -5 32 -50 31 -80 0 -79 -1 -74 32 l4 30 -67 0 -67 0 4 30 c4
28 2 30 -26 31 -17 1 -46 1 -63 0 -21 -1 -33 3 -34 11 -1 7 -2 22 -3 33 -1 18
-8 20 -91 20 l-90 0 -3 33 c-3 29 -7 33 -30 32 -15 -1 -44 -2 -64 -1 -34 1
-37 3 -35 29 l2 27 -125 5 -125 5 2 28 c2 31 15 28 -147 30 l-104 2 -1 30 0
30 -125 0 -125 0 0 30 0 30 -180 2 c-99 1 -198 2 -221 2 -38 1 -40 2 -38 31
l2 30 -219 0 -219 0 0 -500z"/>
<path d="M17 3062 c-16 -3 -17 -41 -17 -470 l0 -467 185 0 c102 0 186 -3 186
-7 1 -5 2 -18 3 -30 1 -22 4 -23 117 -24 64 -1 121 -4 127 -8 6 -3 9 -17 7
-31 l-2 -25 93 0 94 0 0 -30 c0 -32 -6 -30 95 -34 23 -1 30 -6 30 -21 1 -36
13 -43 70 -40 57 2 60 -1 55 -48 -1 -13 4 -18 17 -17 40 5 113 0 112 -8 -6
-38 2 -52 31 -52 27 0 30 -3 30 -30 l0 -30 60 0 c41 0 60 -4 61 -12 1 -7 2
-22 3 -33 1 -16 8 -20 34 -19 24 0 32 -4 31 -16 -3 -29 1 -50 9 -49 38 6 52
-2 52 -31 0 -27 3 -30 30 -30 29 0 35 -12 32 -60 0 -3 14 -5 31 -5 22 0 31 -4
29 -14 -5 -24 9 -53 24 -47 25 10 44 -5 44 -35 0 -26 4 -29 30 -29 l30 0 0
-60 0 -60 30 0 c27 0 30 -3 30 -30 0 -16 5 -31 10 -31 6 -1 20 -2 32 -3 20 -1
23 -7 24 -56 2 -72 0 -68 32 -72 24 -3 27 -7 28 -43 1 -22 2 -49 3 -61 1 -15
8 -20 29 -20 26 1 27 -1 30 -61 3 -61 3 -62 34 -65 l32 -3 0 -90 1 -90 30 0
30 -1 0 -154 0 -155 33 -3 33 -3 -2 -107 c0 -59 -1 -115 0 -125 1 -16 28 -17
469 -15 l467 3 0 185 0 185 -30 0 -30 0 -2 130 c-1 72 -2 142 -2 158 -1 23 -5
27 -31 27 l-30 0 0 125 c0 95 -3 125 -12 124 -52 -6 -53 -4 -53 93 l0 93 -30
0 -30 0 1 63 1 62 -34 0 -33 0 0 65 0 65 -30 -5 -30 -5 0 65 0 65 -33 0 -33 0
4 60 c2 37 -1 60 -7 61 -6 1 -15 3 -21 4 -5 1 -16 3 -24 4 -7 0 -13 9 -13 18
0 38 -4 43 -32 43 -27 0 -29 3 -29 38 0 82 0 82 -32 82 -27 0 -30 3 -30 30 0
29 -5 33 -42 33 -17 0 -21 9 -21 50 0 13 -8 17 -31 17 -28 0 -32 3 -32 28 1
23 -3 27 -32 30 -24 2 -33 8 -31 20 4 45 0 52 -31 46 l-30 -6 0 67 0 67 -32
-2 c-18 -1 -48 -2 -66 -1 -30 1 -32 3 -27 31 5 29 4 30 -31 30 -35 0 -36 1
-32 30 5 31 1 34 -39 30 -20 -1 -23 3 -23 32 0 30 -3 34 -27 33 -23 0 -29 5
-33 30 -3 16 -11 31 -17 31 -7 1 -21 2 -32 3 -14 1 -18 8 -16 31 l3 30 -64 0
-64 0 0 30 c0 29 -7 34 -42 31 -14 -2 -18 5 -18 28 0 17 -3 32 -7 32 -5 1 -30
3 -58 4 -27 2 -53 3 -57 4 -5 0 -8 15 -8 31 l0 30 -60 0 c-41 0 -60 4 -61 13
-1 6 -2 19 -3 27 -1 11 -17 16 -63 18 -61 3 -62 3 -65 34 l-3 32 -57 -3 -57
-2 -3 33 -3 33 -90 0 -90 0 -3 31 c-3 31 -3 31 -65 31 -117 1 -128 3 -126 16
6 48 9 47 -156 47 l-155 0 0 33 0 32 -233 0 c-129 0 -241 -1 -250 -3z"/>
<path d="M439 1172 c-1 -9 -2 -24 -3 -32 -1 -11 -15 -15 -61 -15 l-60 0 -3
-34 c-3 -30 -6 -33 -33 -29 -27 4 -29 2 -29 -29 0 -30 -3 -33 -30 -33 -27 0
-30 -3 -30 -30 0 -30 -8 -35 -51 -31 -13 1 -16 -6 -14 -29 1 -16 -2 -31 -9
-32 -6 0 -15 -2 -21 -3 -5 -2 -16 -3 -23 -4 -8 -1 -13 -12 -12 -28 1 -16 2
-43 1 -60 -1 -30 -4 -33 -31 -33 l-30 0 0 -155 c0 -165 -1 -162 48 -156 12 2
14 -9 14 -88 0 -42 0 -43 28 -39 34 5 37 0 35 -70 -2 -54 4 -59 53 -53 7 1 12
-11 12 -33 0 -32 2 -35 28 -33 24 2 27 -2 30 -30 3 -33 3 -33 55 -31 63 3 76
-4 72 -37 l-2 -25 251 2 251 3 -1 28 c0 15 5 27 10 28 6 0 34 1 61 2 48 1 50
2 55 31 4 26 9 31 35 31 26 1 29 4 30 30 0 26 4 30 33 33 30 3 32 6 27 33 -5
28 -4 29 30 29 l35 0 -2 92 c-1 73 2 93 13 94 8 1 22 2 32 3 15 1 17 15 17
156 l0 155 -30 0 c-22 0 -30 5 -31 18 0 9 -1 37 -2 62 -2 43 -3 45 -32 45 -29
0 -29 0 -30 60 0 59 -1 60 -30 65 -24 4 -31 11 -33 32 -3 21 -9 27 -30 30 -21
2 -28 9 -32 33 -5 29 -6 30 -65 30 -60 0 -60 1 -60 30 l-1 30 -217 2 c-197 2
-217 0 -218 -15z"/>
</g>
</svg>
